<svg  xmlns="http://www.w3.org/2000/svg" xmlns:xlink="http://www.w3.org/1999/xlink" width="32" height="128">
	<defs>
        <g id="radio">
           <path d="M29.9,8c-1.4-2.5-3.4-4.4-5.8-5.8C21.6,0.7,18.9,0,16,0c-2.9,0-5.6,0.7-8,2.1C5.5,3.6,3.6,5.5,2.1,8C0.7,10.4,0,13.1,0,16
            c0,2.9,0.7,5.6,2.1,8c1.4,2.5,3.4,4.4,5.8,5.8c2.5,1.4,5.1,2.1,8,2.1s5.6-0.7,8-2.1c2.5-1.4,4.4-3.4,5.8-5.8
            c1.4-2.5,2.1-5.1,2.1-8C32,13.1,31.3,10.4,29.9,8z M25.8,21.7c-1,1.7-2.4,3.1-4.1,4.1c-1.7,1-3.6,1.5-5.7,1.5
            c-2.1,0-4-0.5-5.7-1.5c-1.7-1-3.1-2.4-4.1-4.1c-1-1.7-1.5-3.6-1.5-5.7c0-2.1,0.5-4,1.5-5.7c1-1.7,2.4-3.1,4.1-4.1
            c1.7-1,3.6-1.5,5.7-1.5c2.1,0,4,0.5,5.7,1.5c1.7,1,3.1,2.4,4.1,4.1c1,1.7,1.5,3.6,1.5,5.7C27.3,18.1,26.8,20,25.8,21.7z"/>
        </g>

         <g id="radio_checked">
                <path d="M29.9,8c-1.4-2.5-3.4-4.4-5.8-5.8C21.6,0.7,18.9,0,16,0c-2.9,0-5.6,0.7-8,2.1C5.5,3.6,3.6,5.5,2.1,8C0.7,10.4,0,13.1,0,16
            c0,2.9,0.7,5.6,2.1,8c1.4,2.5,3.4,4.4,5.8,5.8c2.5,1.4,5.1,2.1,8,2.1s5.6-0.7,8-2.1c2.5-1.4,4.4-3.4,5.8-5.8
            c1.4-2.5,2.1-5.1,2.1-8C32,13.1,31.3,10.4,29.9,8z M25.8,21.7c-1,1.7-2.4,3.1-4.1,4.1c-1.7,1-3.6,1.5-5.7,1.5
            c-2.1,0-4-0.5-5.7-1.5c-1.7-1-3.1-2.4-4.1-4.1c-1-1.7-1.5-3.6-1.5-5.7c0-2.1,0.5-4,1.5-5.7c1-1.7,2.4-3.1,4.1-4.1
            c1.7-1,3.6-1.5,5.7-1.5c2.1,0,4,0.5,5.7,1.5c1.7,1,3.1,2.4,4.1,4.1c1,1.7,1.5,3.6,1.5,5.7C27.3,18.1,26.8,20,25.8,21.7z"/>
        <path d="M16,10.7c-1.5,0-2.7,0.5-3.8,1.6c-1,1-1.6,2.3-1.6,3.8c0,1.5,0.5,2.7,1.6,3.8c1,1,2.3,1.6,3.8,1.6c1.5,0,2.7-0.5,3.8-1.6
            c1-1,1.6-2.3,1.6-3.8c0-1.5-0.5-2.7-1.6-3.8C18.7,11.2,17.5,10.7,16,10.7z"/>
         </g>


        <g id="checkbox">
                <path d="M27.4,0H4.6C2,0,0,2,0,4.6v22.9C0,30,2,32,4.6,32h22.9c2.5,0,4.6-2,4.6-4.6V4.6C32,2,30,0,27.4,0z M29.4,27.4
            c0,1.1-0.9,2-2,2H4.6c-1.1,0-2-0.9-2-2V4.6c0-1.1,0.9-2,2-2h22.9c1.1,0,2,0.9,2,2V27.4z"/>
         </g>

        <g id="checkbox_checked">
            <path d="M27.4,0H4.6C2,0,0,2,0,4.6v22.9C0,30,2,32,4.6,32h22.9c2.5,0,4.6-2,4.6-4.6V4.6C32,2,30,0,27.4,0z M29.4,27.4
            c0,1.1-0.9,2-2,2H4.6c-1.1,0-2-0.9-2-2V4.6c0-1.1,0.9-2,2-2h22.9c1.1,0,2,0.9,2,2V27.4z"/>
            <path d="M6.2,16.7C6.1,16.5,6,16.3,6,16.1c0-0.2,0.1-0.4,0.2-0.6l1.1-1.1c0.3-0.3,0.8-0.3,1.1,0l0.1,0.1l4.5,4.8
    c0.2,0.2,0.4,0.2,0.6,0L24.6,8h0.1l0,0c0.3-0.3,0.8-0.3,1.1,0l1.1,1.1c0.3,0.3,0.3,0.8,0,1.1l0,0l-13,13.5c-0.2,0.2-0.3,0.2-0.6,0.2
    c-0.2,0-0.4-0.1-0.6-0.2l-6.3-6.8C6.4,16.9,6.2,16.7,6.2,16.7z"/>
        </g>

    </defs>


<use x="0" y="0" xlink:href="#radio"  />
<use x="0" y="32" xlink:href="#radio_checked"  />
<use x="0" y="64" xlink:href="#checkbox"  />
<use x="0" y="96" xlink:href="#checkbox_checked"  />


</svg>
