<svg width="191" height="65" viewBox="0 0 191 65" fill="none" xmlns="http://www.w3.org/2000/svg">
<path fill-rule="evenodd" clip-rule="evenodd" d="M52.3614 26.1512C51.645 29.3827 50.9365 32.6142 50.2192 35.8457C48.7666 33.9547 47.4475 31.9581 46.0553 30.0235C46.6688 27.4989 47.2219 24.958 47.784 22.4181C48.2065 20.4641 48.4351 18.3711 47.7968 16.4365C46.6599 13.2304 43.0215 11.2612 39.8056 12.0645C37.0181 12.6769 34.7482 14.5425 32.3249 15.9673C26.0118 19.7269 19.2644 22.611 12.6743 25.7917C13.2304 24.8107 14.1674 24.1638 14.9422 23.3828C19.7384 18.8647 25.052 14.9832 30.2707 11.0053C33.4104 8.63299 37.0518 6.57345 41.0484 6.54298C44.9302 6.34597 48.7596 8.33035 51.1275 11.4552C52.781 13.6803 53.5142 16.5299 53.4192 19.3115C53.4618 21.6391 52.8483 23.8987 52.3614 26.1512ZM5.77838 51.1754C6.89356 54.5044 10.7259 56.4918 14.0091 55.5697C16.6293 54.9674 18.7568 53.1953 21.0425 51.8548C27.4288 47.9825 34.3098 45.1014 40.9999 41.8577C37.4624 45.8295 33.2155 49.0478 29.0635 52.3037C25.1826 55.1391 21.5808 58.5544 17.0548 60.2879C13.7627 61.472 9.93629 61.5574 6.80252 59.8482C3.47382 58.2324 0.911981 54.939 0.367752 51.1662C-0.0607052 48.7756 0.166882 46.32 0.696268 43.967C1.58386 39.914 2.49222 35.87 3.37091 31.817C4.79283 33.7455 6.18507 35.7015 7.53476 37.6889C6.91137 40.1953 6.38594 42.726 5.81796 45.2486C5.38258 47.1822 5.1065 49.2601 5.77838 51.1754Z" fill="#2B5AE1"/>
<path fill-rule="evenodd" clip-rule="evenodd" d="M52.1024 53.9083C50.5706 57.2555 47.5576 59.9366 43.9597 60.6251C39.8691 61.5807 35.7933 60.1295 31.8175 59.2765C29.4536 58.722 27.0837 58.1898 24.7227 57.6221C26.5019 56.1059 28.473 54.8456 30.2917 53.3812C33.0296 53.9885 35.7468 54.6953 38.4917 55.2813C40.6637 55.7109 43.1098 55.7474 45.0047 54.4211C47.2043 52.8328 48.4808 49.8908 47.9138 47.166C47.5942 45.3563 46.7383 43.7162 45.7874 42.1777C41.2515 34.9155 38.0019 26.9332 34.5347 19.1115C38.367 22.8111 41.5622 27.1262 44.7335 31.4118C47.2627 35.0932 50.2965 38.4902 52.0628 42.6539C53.553 46.185 53.8449 50.4107 52.1024 53.9083ZM14.7435 11.964C12.5864 11.5538 10.1463 11.4877 8.27611 12.8425C6.41781 14.185 5.1928 16.4985 5.29967 18.8495C5.28186 21.4158 6.62759 23.6987 7.9377 25.7907C12.0719 32.468 15.0018 39.7982 18.2741 46.9294C18.4591 47.3681 18.5759 47.8353 18.6877 48.3024C14.8227 44.0544 11.1882 39.59 7.87338 34.8809C5.30264 31.2341 2.29651 27.7741 0.806314 23.4773C-0.366253 20.0925 -0.326673 16.1745 1.36736 12.9796C2.70122 10.2833 4.98896 8.05011 7.80708 7.06604C10.643 6.02612 13.756 6.19673 16.6562 6.85785C20.6222 7.782 24.5921 8.69498 28.5551 9.62929C26.7542 11.1394 24.8138 12.4627 22.9495 13.8855C20.2175 13.2284 17.4874 12.5591 14.7435 11.964Z" fill="#E63A28"/>

</svg>
