<?xml version="1.0" encoding="utf-8"?>
<!-- Generator: Adobe Illustrator 21.1.0, SVG Export Plug-In . SVG Version: 6.00 Build 0)  -->
<svg version="1.1" id="Layer_1" xmlns="http://www.w3.org/2000/svg" xmlns:xlink="http://www.w3.org/1999/xlink" x="0px" y="0px"
	 width="32px" height="32px" viewBox="0 0 32 32" style="enable-background:new 0 0 32 32;" xml:space="preserve">
<g>
	<g>
		<path d="M27.4,0H4.6C2,0,0,2,0,4.6v22.9C0,30,2,32,4.6,32h22.9c2.5,0,4.6-2,4.6-4.6V4.6C32,2,30,0,27.4,0z M29.4,27.4
			c0,1.1-0.9,2-2,2H4.6c-1.1,0-2-0.9-2-2V4.6c0-1.1,0.9-2,2-2h22.9c1.1,0,2,0.9,2,2V27.4z"/>
	</g>
</g>
<path d="M6.2,16.7C6.1,16.5,6,16.3,6,16.1c0-0.2,0.1-0.4,0.2-0.6l1.1-1.1c0.3-0.3,0.8-0.3,1.1,0l0.1,0.1l4.5,4.8
	c0.2,0.2,0.4,0.2,0.6,0L24.6,8h0.1l0,0c0.3-0.3,0.8-0.3,1.1,0l1.1,1.1c0.3,0.3,0.3,0.8,0,1.1l0,0l-13,13.5c-0.2,0.2-0.3,0.2-0.6,0.2
	c-0.2,0-0.4-0.1-0.6-0.2l-6.3-6.8C6.4,16.9,6.2,16.7,6.2,16.7z"/>
</svg>
