<svg  xmlns="http://www.w3.org/2000/svg" xmlns:xlink="http://www.w3.org/1999/xlink" width="24" height="300">
	<defs>
			  <g id="arrow">
          	<path d="M7 10l5 5 5-5z"></path>
        </g>
        <g id="checkbox">
        	<path d="M19 5v14H5V5h14m0-2H5c-1.1 0-2 .9-2 2v14c0 1.1.9 2 2 2h14c1.1 0 2-.9 2-2V5c0-1.1-.9-2-2-2z"></path>
      </g>
      <g id="checkbox-checked">
      		<path d="M19 3H5c-1.11 0-2 .9-2 2v14c0 1.1.89 2 2 2h14c1.11 0 2-.9 2-2V5c0-1.1-.89-2-2-2zm-9 14l-5-5 1.41-1.41L10 14.17l7.59-7.59L19 8l-9 9z"></path>
     </g>
     <g id="checkbox-disabled">
     		<path d="M19 5v14H5V5h14m0-2H5c-1.1 0-2 .9-2 2v14c0 1.1.9 2 2 2h14c1.1 0 2-.9 2-2V5c0-1.1-.9-2-2-2z"></path>
     </g>
     <g id="radio">
     	<path d="M12 2C6.48 2 2 6.48 2 12s4.48 10 10 10 10-4.48 10-10S17.52 2 12 2zm0 18c-4.42 0-8-3.58-8-8s3.58-8 8-8 8 3.58 8 8-3.58 8-8 8z"></path>
     </g>
     <g id="radio-checked">
     		<path d="M12 7c-2.76 0-5 2.24-5 5s2.24 5 5 5 5-2.24 5-5-2.24-5-5-5zm0-5C6.48 2 2 6.48 2 12s4.48 10 10 10 10-4.48 10-10S17.52 2 12 2zm0 18c-4.42 0-8-3.58-8-8s3.58-8 8-8 8 3.58 8 8-3.58 8-8 8z"></path>
     </g>
     <g id="radio-disabled">
     		<path d="M12 2C6.48 2 2 6.48 2 12s4.48 10 10 10 10-4.48 10-10S17.52 2 12 2zm0 18c-4.42 0-8-3.58-8-8s3.58-8 8-8 8 3.58 8 8-3.58 8-8 8z"></path>
     </g>

    <g id="checked">
        <path fill="none" d="M0,0h24v24H0V0z"/>
        <path d="M9,16.17L4.83,12l-1.42,1.41L9,19L21,7l-1.41-1.41L9,16.17z"/>
    </g>



	</defs>
	<use x="0" y="0" xlink:href="#arrow"  />
	<use x="0" y="24" xlink:href="#checkbox"  />
	<use x="0" y="48" xlink:href="#checkbox-checked"  />
	<use x="0" y="72" xlink:href="#checkbox-disabled"  />
	<use x="0" y="96" xlink:href="#radio"  />
	<use x="0" y="120" xlink:href="#radio-checked"  />
    <use x="0" y="144" xlink:href="#radio-disabled"  />
	<use x="0" y="168" xlink:href="#checked"  />

</svg>