<?xml version="1.0" encoding="utf-8"?>
<!-- Generator: Adobe Illustrator 21.1.0, SVG Export Plug-In . SVG Version: 6.00 Build 0)  -->
<svg version="1.1" id="Capa_1" xmlns="http://www.w3.org/2000/svg" xmlns:xlink="http://www.w3.org/1999/xlink" x="0px" y="0px"
	 width="32px" height="32px" viewBox="0 0 32 32" style="enable-background:new 0 0 32 32;" xml:space="preserve">
<g>
	<g>
		<path d="M29.9,8c-1.4-2.5-3.4-4.4-5.8-5.8C21.6,0.7,18.9,0,16,0c-2.9,0-5.6,0.7-8,2.1C5.5,3.6,3.6,5.5,2.1,8C0.7,10.4,0,13.1,0,16
			c0,2.9,0.7,5.6,2.1,8c1.4,2.5,3.4,4.4,5.8,5.8c2.5,1.4,5.1,2.1,8,2.1s5.6-0.7,8-2.1c2.5-1.4,4.4-3.4,5.8-5.8
			c1.4-2.5,2.1-5.1,2.1-8C32,13.1,31.3,10.4,29.9,8z M25.8,21.7c-1,1.7-2.4,3.1-4.1,4.1c-1.7,1-3.6,1.5-5.7,1.5
			c-2.1,0-4-0.5-5.7-1.5c-1.7-1-3.1-2.4-4.1-4.1c-1-1.7-1.5-3.6-1.5-5.7c0-2.1,0.5-4,1.5-5.7c1-1.7,2.4-3.1,4.1-4.1
			c1.7-1,3.6-1.5,5.7-1.5c2.1,0,4,0.5,5.7,1.5c1.7,1,3.1,2.4,4.1,4.1c1,1.7,1.5,3.6,1.5,5.7C27.3,18.1,26.8,20,25.8,21.7z"/>
	</g>
</g>
</svg>
