<?xml version="1.0" encoding="utf-8"?>
<!-- Generator: Adobe Illustrator 21.1.0, SVG Export Plug-In . SVG Version: 6.00 Build 0)  -->
<svg version="1.1" xmlns="http://www.w3.org/2000/svg"  viewBox="0 0 22.8 30"">
<g>
	<path d="M11.4,14.7c3.3,0,6-3.3,6-7.3c0-4.1-0.9-7.3-6-7.3s-6,3.3-6,7.3C5.4,11.4,8.1,14.7,11.4,14.7z"/>
	<path d="M0,25.9C0,25.6,0,25.8,0,25.9L0,25.9z"/>
	<path d="M22.8,26.1C22.8,26,22.8,25.6,22.8,26.1L22.8,26.1z"/>
	<path d="M22.8,25.6c-0.1-7.1-1-9.1-8.1-10.3c0,0-1,1.3-3.3,1.3s-3.3-1.3-3.3-1.3c-7,1.3-8,3.2-8.1,10.1c0,0.6,0,0.6,0,0.5
		c0,0.1,0,0.3,0,0.7c0,0,1.7,3.4,11.4,3.4c9.7,0,11.4-3.4,11.4-3.4c0-0.3,0-0.4,0-0.5C22.8,26.1,22.8,26,22.8,25.6z"/>
</g>
</svg>
