<?xml version="1.0" encoding="utf-8"?>
<!-- Generator: Adobe Illustrator 21.1.0, SVG Export Plug-In . SVG Version: 6.00 Build 0)  -->
<svg version="1.1" id="Capa_1" xmlns="http://www.w3.org/2000/svg" xmlns:xlink="http://www.w3.org/1999/xlink" x="0px" y="0px"
	 width="100px" height="100px" viewBox="0 0 100 100" style="enable-background:new 0 0 100 100;" xml:space="preserve">
<g>
	<path d="M50,0C22.4,0,0,22.4,0,50s22.4,50,50,50s50-22.4,50-50S77.6,0,50,0z M50,92.2C26.7,92.2,7.8,73.3,7.8,50S26.7,7.8,50,7.8
		S92.2,26.7,92.2,50S73.3,92.2,50,92.2z"/>
	<path d="M61.9,42.3h-8.7V36c0-1.9,2-2.4,3-2.4c0.9,0,5.6,0,5.6,0V25l-6.4,0c-8.8,0-10.8,6.4-10.8,10.5v6.9h-6.4v8.8h6.4
		c0,11.3,0,23.8,0,23.8h8.7c0,0,0-12.6,0-23.8h7.4L61.9,42.3z"/>
</g>
</svg>
