<?xml version="1.0" encoding="utf-8"?>
<!-- Generator: Adobe Illustrator 21.1.0, SVG Export Plug-In . SVG Version: 6.00 Build 0)  -->
<svg version="1.1" id="Capa_1" xmlns="http://www.w3.org/2000/svg" xmlns:xlink="http://www.w3.org/1999/xlink" x="0px" y="0px"
	 width="100px" height="100px" viewBox="0 0 100 100" style="enable-background:new 0 0 100 100;" xml:space="preserve">
<g>
	<g>
		<path d="M71.4,40.1c0-0.5,0-1,0-1.5c2.2-1.6,4-3.6,5.5-5.9c-2,0.9-4.1,1.5-6.3,1.7c2.3-1.4,4-3.6,4.9-6.3c-2.1,1.3-4.5,2.2-7,2.7
			c-2-2.3-4.9-3.8-8.1-3.8c-6.1-0.1-11,5.1-11,11.5c0,0.9,0.1,1.8,0.3,2.7c-9.2-0.6-17.3-5.4-22.8-12.6c-1,1.7-1.5,3.7-1.5,5.9
			c0,4.1,2,7.7,4.9,9.9c-1.8-0.1-3.5-0.6-5-1.5c0,0.1,0,0.1,0,0.2c0,5.7,3.8,10.5,8.9,11.6c-0.9,0.3-1.9,0.4-2.9,0.4
			c-0.7,0-1.4-0.1-2.1-0.2c1.4,4.7,5.5,8.1,10.3,8.2c-3.8,3.1-8.5,5-13.7,5c-0.9,0-1.8-0.1-2.6-0.2c4.9,3.4,10.7,5.3,16.9,5.3
			C60.3,73.1,71.4,55.4,71.4,40.1z"/>
		<path d="M100,50c0-27.6-22.4-50-50-50C22.4,0,0,22.4,0,50c0,27.6,22.4,50,50,50C77.6,100,100,77.6,100,50z M4.5,50
			C4.5,24.9,24.9,4.5,50,4.5S95.5,24.9,95.5,50S75.1,95.5,50,95.5S4.5,75.1,4.5,50z"/>
	</g>
</g>
</svg>
