<svg xmlns="http://www.w3.org/2000/svg" xmlns:xlink="http://www.w3.org/1999/xlink" style="width: 0; height: 0; visibility: hidden; position: absolute;" aria-hidden="true"><symbol  viewBox='0 0 200 200' id='create'>
    <path d="M120.784 171.935c-2.788-2.05-3.084-5.128-3.084-5.128l-1.045-6.683H83.341l-1.046 6.679s-.291 3.082-3.079 5.132c-2.786 2.049-4.984 3.808-2.786 4.106 2.118.285 22.098.023 23.57 0 1.477.023 21.449.285 23.569 0 2.196-.297-.004-2.052-2.785-4.106z"></path><g fill="var(--brash-fill, black)"><path d="M62.474 118.556c8.899-.068 10.008-2.215 12.908-11.146 5.352-14.103 29.445 3.69 14.514 9.864-14.932 6.178-36.323 1.35-27.422 1.282z"></path><path d="M153.731 25.629c-4.32-3.48-11.473-1.767-15.979 3.827L92.09 94.325c-4.509 5.592-4.486 4.524-.167 8.001 4.319 3.48 3.279 3.732 7.786-1.862l53.677-58.406c4.508-5.596 4.663-12.951.345-16.429zm-11.739 7.764s-.67-.776-2.894-2.555c3.335-5.447 9.89-4.448 9.89-4.448-6.218 3.669-6.996 7.003-6.996 7.003z"></path></g><path d="M173.978 47.549h-20.079l-8.867 9.649h25.732v77.194H29.24V57.198h82.328l6.796-9.649H26.022a6.433 6.433 0 0 0-6.433 6.432v93.277a6.434 6.434 0 0 0 6.433 6.434h147.956a6.435 6.435 0 0 0 6.434-6.434V53.981a6.434 6.434 0 0 0-6.434-6.432z"></path>
  </symbol><symbol  viewBox='0 0 32 32' id='mail'>
    <path class="mail-icon" d="M26.667 0H5.334C2.4 0 0 2.4 0 5.334v21.332C0 29.602 2.4 32 5.334 32h21.333C29.601 32 32 29.602 32 26.666V5.334C32 2.4 29.601 0 26.667 0zm0 4c.25 0 .486.073.688.198L16 13.586 4.645 4.199c.202-.125.439-.198.689-.198h21.333zM5.334 28a1.32 1.32 0 0 1-.178-.013l7.051-9.78-.914-.914L4 24.586V5.488L16 20 28 5.488v19.098l-7.293-7.293-.914.914 7.051 9.78a1.294 1.294 0 0 1-.177.013H5.334z"></path>
  </symbol><symbol  viewBox='0 0 200 200' id='topics'>
    <path d="M100 18.589c-44.338 0-80.411 36.073-80.411 80.411 0 44.34 36.073 80.411 80.411 80.411 44.34 0 80.411-36.071 80.411-80.411 0-44.338-36.071-80.411-80.411-80.411zm4.825 150.991v-12.685h-9.649v12.685c-35.179-2.384-63.372-30.577-65.754-65.755h12.683v-9.65H29.421c2.382-35.179 30.575-63.372 65.754-65.754v12.683h9.649V28.421c35.178 2.382 63.371 30.575 65.755 65.754h-12.685v9.65h12.685c-2.383 35.178-30.576 63.371-65.754 65.755z"></path><path d="M66.291 114.313c4.977-3.304 10.503-5.287 15.847-7.052.77-.251 1.535-.591 2.299-.844l.157-.099c1.131-.396 2.201-.789 3.075-1.268.04-.097.097-.262.166-.517-4.398-6.422-7.391-16.354-7.391-24.86 0-7.214 2.268-12.565 6.542-15.818-1.847-.937-4.079-1.294-6.479-1.294-6.396 0-11.579 2.553-11.579 11.727 0 6.091 2.283 13.562 5.691 17.899a12.31 12.31 0 0 1-.135 1.026c-.204.934-.527 1.977-1.401 2.496-.975.58-2.063.948-3.131 1.321-4.429 1.492-9.012 2.805-12.94 5.418-2.045 1.345-3.431 4.021-4.193 6.313-.788 2.384-1.111 4.712-1.061 7.928h12.078c.767-1.607 1.584-1.807 2.455-2.376zm76.7-11.776c-3.933-2.61-8.514-3.968-12.943-5.459-1.067-.373-2.157-.766-3.133-1.346-.872-.519-1.199-1.574-1.399-2.506a11.782 11.782 0 0 1-.171-1.494c3.212-4.394 5.34-11.563 5.34-17.443 0-9.176-5.183-11.732-11.577-11.732-2.435 0-4.686.373-6.553 1.336 4.24 3.258 6.49 8.592 6.49 15.777 0 8.282-2.78 17.817-7.005 24.28.014.072.025.146.037.218.11.505.2.764.258.897.926.512 2.035.919 3.272 1.356l1.853.614c5.485 1.822 11.155 4.026 16.262 7.417.826.54 1.604.628 2.336 2.236h12.186c.045-3.216-.277-5.544-1.063-7.928-.762-2.288-2.148-4.875-4.19-6.223z"></path><path d="M131.589 117.369c-5.241-3.477-11.351-5.309-17.254-7.293-1.429-.501-2.874-1.03-4.178-1.806-1.164-.691-1.598-2.099-1.869-3.344a16.585 16.585 0 0 1-.228-1.997c4.28-5.855 7.12-15.416 7.12-23.254 0-12.235-6.91-15.646-15.438-15.646S84.304 67.436 84.304 79.67c0 8.12 3.043 18.083 7.585 23.868-.041.455-.098.911-.177 1.368-.273 1.238-.707 2.637-1.869 3.323-1.305.773-2.751 1.265-4.178 1.766-5.905 1.986-12.015 3.739-17.253 7.22-2.727 1.793-4.574 5.258-5.593 8.314-1.048 3.173-1.478 7.242-1.414 10.46h77.187c.066-3.218-.365-7.287-1.413-10.46-1.02-3.059-2.866-6.363-5.59-8.16z"></path>
  </symbol><symbol  viewBox='0 0 200 200' id='use'>
    <path d="M86.755 113.607v9.824l-34.921-15.138v-8.4l34.921-15.135v9.894l-24.332 9.375 24.332 9.58zm21.594-29.057-9.723 40.026c-.323 1.317-.605 2.36-.849 3.124-.243.765-.611 1.362-1.109 1.786-.498.429-1.221.643-2.171.643-2.358 0-3.54-1.021-3.54-3.054 0-.533.231-1.863.694-3.992l9.686-40.027c.51-2.128.995-3.586 1.458-4.372.462-.787 1.364-1.181 2.708-1.181 1.157 0 2.043.278 2.654.834.613.556.921 1.32.921 2.291 0 .717-.245 2.025-.729 3.922zm39.817 23.744L113.245 123.5v-9.824l24.404-9.58-24.404-9.444v-9.754l34.921 15.065v8.331z"></path><path d="M170.644 28.356H29.356c-5.319 0-9.633 4.315-9.633 9.634v122.021c0 5.317 4.314 9.633 9.633 9.633h141.288c5.321 0 9.633-4.315 9.633-9.633V37.99c-.001-5.321-4.312-9.634-9.633-9.634zm-24.083 6.423a6.43 6.43 0 0 1 6.423 6.422 6.43 6.43 0 0 1-6.423 6.421 6.429 6.429 0 0 1-6.422-6.421 6.429 6.429 0 0 1 6.422-6.422zm-17.661 0a6.43 6.43 0 0 1 6.421 6.422 6.428 6.428 0 0 1-6.421 6.421 6.43 6.43 0 0 1-6.423-6.421 6.43 6.43 0 0 1 6.423-6.422zm41.744 125.232H29.356V54.045h141.288v105.966zm-6.422-112.388c-3.54 0-6.423-2.88-6.423-6.421a6.43 6.43 0 0 1 6.423-6.422 6.43 6.43 0 0 1 6.422 6.422 6.43 6.43 0 0 1-6.422 6.421z"></path>
  </symbol></svg>