<svg xmlns="http://www.w3.org/2000/svg" xmlns:xlink="http://www.w3.org/1999/xlink" style="width: 0; height: 0; visibility: hidden; position: absolute;" aria-hidden="true"><symbol  viewBox='0 0 32 32' id='aquarius'>
    <path d="M1.631 13.91c1.703 0 2.789-1.314 3.662-2.376.873-1.057 1.455-1.698 2.181-1.698.382 0 .688.412 1.356 1.574.775 1.35 1.944 3.386 4.486 3.386 2.623 0 3.706-2.061 4.42-3.422.312-.596.703-1.336.947-1.336.422 0 1.055 1.006 1.516 1.737.867 1.373 1.943 3.086 3.988 3.086 1.994 0 3.479-1.663 4.797-3.132.473-.528 1.177-1.312 1.514-1.493a1.632 1.632 0 0 0-.128-3.257c-1.511 0-2.63 1.25-3.813 2.574-.641.716-1.832 2.045-2.373 2.045-.283-.067-.918-1.078-1.225-1.562-.866-1.376-2.053-3.262-4.275-3.262-2.215 0-3.188 1.854-3.833 3.079-.725 1.38-.996 1.678-1.533 1.678-.561 0-.905-.438-1.658-1.747-.781-1.355-1.849-3.213-4.186-3.213-2.316 0-3.693 1.669-4.697 2.889-.342.412-.91 1.104-1.163 1.188a1.63 1.63 0 0 0 .017 3.262zm28.739 3.64c-1.511 0-2.63 1.25-3.813 2.572-.641.717-1.832 2.046-2.373 2.046-.283-.067-.918-1.077-1.225-1.562-.866-1.377-2.053-3.262-4.275-3.262-2.215 0-3.188 1.854-3.833 3.08-.725 1.379-.996 1.676-1.533 1.676-.561 0-.905-.438-1.658-1.746-.779-1.355-1.848-3.215-4.185-3.215-2.315 0-3.692 1.67-4.696 2.89-.342.414-.91 1.104-1.163 1.188A1.633 1.633 0 0 0 0 22.847c0 .899.73 1.631 1.631 1.631 1.703 0 2.789-1.314 3.662-2.375.873-1.058 1.455-1.699 2.181-1.699.382 0 .688.413 1.356 1.574.775 1.351 1.944 3.386 4.486 3.386 2.623 0 3.706-2.06 4.42-3.42.312-.597.703-1.337.947-1.337.422 0 1.055 1.006 1.516 1.736.867 1.375 1.943 3.086 3.988 3.086 1.994 0 3.479-1.662 4.797-3.131.473-.527 1.177-1.312 1.514-1.494a1.629 1.629 0 0 0-.128-3.254z" fill="var(--fill-icon, black)"></path>
  </symbol><symbol  viewBox='0 0 32.257 32.257' id='aries'>
    <path d="M.448 26.795H22.31c-.02-3.396.83-4.469 1.275-5.629.447-1.162 1.831-2.231 1.831-2.231s.894 2.389-1.026 3.685c2.946.065 2.887-3.537 2.887-3.537s4.979 1.688 4.979-.345c0-1.728-2.104-1.459-2.104-4.001-.223-1.742-.707-2.561-2.354-3.012.289-4.114-13.395-12.987-17.812 2.596 6.158-9.231 15.097-3.85 13.245-1.751-3.662 2.881-2.59 7.347-6.162 7.302-5.708-.36-11.793-3.812-15.499-.104C-1.104 22.44.448 26.795.448 26.795zm26.573-12.278c0-.396.408-.715.912-.715.5 0 .908.319.908.715 0 .395-.408.714-.908.714s-.912-.32-.912-.714z" fill="var(--fill-icon, black)"></path>
  </symbol><symbol  viewBox='0 0 32.003 32.003' id='cancer'>
    <path d="M25.525 21.952c.557-.039 5.69-.181 6.277-2.964.047-.22-.078-.784-.369-.429-3.478 2.087-6.623-.843-6.623-.843s5.513-5.103 4.645-9.898c-.868-4.797-8.266-9.031-10.46-7.501 3.368 1.837 5.276 6.276 5.276 6.276s-2.571.459-5.276-1.99c-.97 5.459 5.575 5.817 6.686 5.97.735.101-1.55 4.247-2.357 5.047a.528.528 0 0 0-.162.299c-.965-.559-3.94-2.138-7.158-2.138-3.217 0-6.196 1.579-7.16 2.138a.555.555 0 0 0-.161-.299c-.811-.8-3.096-4.946-2.359-5.047 1.109-.152 7.653-.511 6.684-5.97-2.703 2.449-5.275 1.99-5.275 1.99S9.641 2.155 13.008.317c-2.193-1.53-9.592 2.704-10.459 7.501-.867 4.796 4.643 9.898 4.643 9.898s-3.146 2.93-6.622.843c-.291-.355-.415.209-.37.429.586 2.783 5.723 2.925 6.278 2.964.6.043 1.479.971 1.173 1.379-.287.383-5.147.315-7.141-.492-.134-.055-.461-.067-.161.318 1.239 1.713 7.706 1.774 7.659 2.01-.048.24-4.297 4.365-2.035 6.681.143.146.582.312.66-.134 1.117-3.666 3.152-5.989 4.028-6.088.793-.088 5.273.231 5.343.229.068.005.12-.002.122-.009.939-.067 4.428-.308 5.221-.22.875.099 2.91 2.422 4.025 6.088.08.443.521.277.661.134 2.263-2.312-1.987-6.438-2.036-6.681-.047-.233 6.42-.297 7.66-2.01.3-.388-.027-.373-.16-.318-1.994.81-6.854.875-7.144.492-.307-.409.573-1.336 1.172-1.379z"></path>
  </symbol><symbol  viewBox='0 0 32 32' id='capricorn'>
    <path d="M29.452 9.632c.438-1.48 1.816-3.787-1.402-7.639-3.223-3.854-10.914-1.851-7.854 3.702.506-3.938 4.119-3.55 6.139-1.127.758 1.012.189 2.641.189 2.641s-3.668-.841-3.803 3.903c-.055 1.021-1.342 2.568-1.449 2.645-2.285 1.601-8.079-.322-13.439.059-4.776.051-6.986 2.719-5.996 5.945.619.288.924-2.422 1.245-2.285.322.135-.559 1.65-.381 2.285.178.637.838 2.635.584 3.455-.254.822-2.263 2.788-2.263 3.813s.146 3.521.146 3.521S1.014 32 1.32 32s1.963-.055 2.358-.055-.198-1.313-1.011-1.396c0-.312.187-3.389.187-3.389l2.387-2.872s.275 2.815.656 3.375c.382.561 1.708 3.094 1.708 3.094s-.083 1.063.167 1.063 1.625.021 2.125.021-.108-1.432-.879-1.349c-.292-.458-.948-2.996-1.144-3.555-.194-.562-.093-1.806-.067-2.645.026-.839.943-.198 4.882-.226 3.938-.025 4.813-.438 4.813-.438s1.031 6.549 1.09 7.026c.078.52-.086 1.082.185 1.082l2.394-.005c.463 0 .022-1.506-1.053-1.504-.211-.503-.375-3.628-.375-3.628l1.719-3.156s2.656 2.699 3.031 3.406c.375.709.197 2.614.197 2.614s-.354.417-.459.688c.258.412.908.908 1.479 1.479.75-.167.805-1.148.625-1.708-.178-.559-.457-.917-.457-.917s.479-1.729.291-2.354-2.271-5.271-2.771-6.707c-.5-1.438 2.398-6.229 2.398-6.229s3.988 2.211 5.062 1.202c.693-.633-1.843-3.804-1.406-5.285z"></path>
  </symbol><symbol  viewBox='0 0 32 32' id='gemini'>
    <path d="m24.545 12.646-2.729-1.035s-5.42 8.021-5.629 10.269c-.208 2.248 11.586 4.062 13.908 1.3.926-1.668-2.635-10.63-2.635-10.63l-2.915.096zm-5.084 12.187 1.659 5.634.743.124.867-5.214zm3.031 5.864.744.124 3.395-4.794-3.272-.544z"></path><path d="M21.854 10.637s.92.775 2.672 1.12l.014.004a.436.436 0 0 0 .041.007c.061.013.121.021.184.031.062.01.12.021.182.029l.041.007h.013c1.771.241 2.892-.195 2.892-.195s1.447 2.798 4.107.091c-2.589-.045-2.177-.859-1.361-1.441.812-.579 3.562-9.901-4.296-7.997-6.819-4.346-7.233 5.365-6.653 6.176.582.815.709 1.72-1.756.923 1.64 3.42 3.92 1.245 3.92 1.245zm4.767-4.015c.07-.426.529-.704 1.025-.622.496.083.84.494.77.92-.07.426-.529.703-1.025.621-.496-.082-.84-.494-.77-.919zM22.882 6c.071-.426.529-.704 1.025-.621.495.082.84.493.77.92-.071.425-.53.703-1.024.62-.499-.083-.841-.494-.771-.919zM7.279 12.663l-2.912-.18s-2.795 9.269-2.326 11.478c.469 2.208 12.269.439 13.665-2.888.388-1.868-5.672-9.369-5.672-9.369l-2.755.959zM6.043 25.811 9.3 30.699l.748-.104-.72-5.234zm4.636 4.697.748-.101 1.817-5.585-3.285.451z"></path><path d="M4.113 11.544s1.108.468 2.884.275l.013.001c.014-.001.027-.004.041-.007l.183-.023c.062-.007.123-.016.183-.025l.041-.006c.004 0 .008-.003.012-.004 1.762-.295 2.703-1.044 2.703-1.044s2.218 2.239 3.954-1.135c-2.484.727-2.334-.173-1.729-.973.602-.793.462-10.512-6.477-6.359C-1.882.119.608 9.515 1.401 10.117 2.2 10.722 2.589 11.548 0 11.52c2.582 2.779 4.113.024 4.113.024zm4.155-6.148c.498-.067.949.224 1.008.65.058.428-.298.83-.796.898s-.949-.222-1.007-.649c-.059-.428.297-.829.795-.899zm-3.755.517c.497-.068.948.223 1.007.65.059.429-.297.83-.794.897-.499.07-.95-.221-1.009-.649-.059-.427.297-.83.796-.898z"></path><path d="m18.285 16.323 3.179-4.713-5.405 3.972-5.57-4.059 3.296 4.633 2.227 1.054z"></path>
  </symbol><symbol  viewBox='0 0 31.611 31.611' id='leo'>
    <path d="M16.207 12.926c-1.268 2.979 5.197 3.232 8.113 4.69s4.247 4.501 4.942 4.501c3.613-4.818-2.026-11.41-2.026-11.41s-2.154-.634-2.601-2.726c-.443-2.092 1.521-5.198 1.204-3.613-.314 1.584 1.966 2.409 2.221 3.486.253 1.077-.063 2.853-.063 2.853s6.148 3.74 2.346 12.551c1.458 5.896-1.772 5.896-1.772 5.896s1.076 2.092-1.966 2.092h-7.543c-2.728 0-.763-2.282.441-2.282s2.185.038 2.662 0c-.159.011-3.655-.271-2.911-2.622-4.463.366-10.272-1.435-10.272-1.435s-2.823 6.768-4.915 6.704c-2.092-.062-3.781.125-3.625-1 .344-2.25 3.438-.094 3.722-4.375.19-2.471 1.584-4.311 1.584-4.311s-3.866-2.6-2.598-10.078c-.438.036-1.648.253-2.029-.508-.38-.76 0-1.647 0-1.647S-.494 7.503.203 6.235c.696-1.269 3.555-1.644 4.886-1.771C5.631-.703 7.914-.615 11.464.907c5.829-.695 7.331 8.31 4.743 12.019z"></path>
  </symbol><symbol  viewBox='0 0 32.001 32' id='libra'>
    <path d="m31.547 21.565-5.094-11.222c.931-.351 1.414-.962 1.766-1.494a5.71 5.71 0 0 0 .672-1.457c.252-.834.271-1.323.271-1.323s-.237.433-.735 1.085a7.057 7.057 0 0 1-.97 1.045c-.389.342-.928.641-1.377.688l-.146.02-.276-.006-.142-.004c.104-.005-.053-.01-.065-.015l-.285-.032c-.386-.033-.782-.066-1.188-.102-.816-.066-1.679-.145-2.568-.176a98.182 98.182 0 0 0-4.434-.14c-.156-.763-.457-1.339-.824-1.566l.002-.027c0-.425-.154-.771-.344-.771s-.344.346-.344.771l.002.028c-.366.228-.667.804-.823 1.566-1.5.02-2.991.063-4.401.142-.891.032-1.753.114-2.57.176-.888.062-1.43.16-1.996.016-1.138-.273-2.013-1.121-2.56-1.71-.55-.605-.861-1.017-.879-.988 0 0 .06.11.117.324.069.215.15.545.324.94.17.396.396.887.778 1.394.375.504.904 1.061 1.679 1.438.13.065.276.119.42.174L.668 21.565H0s.382 4.368 6.17 4.368c5.789 0 6.171-4.368 6.171-4.368h-.453L6.93 10.643c.25.022.474.031.745.06.816.063 1.678.146 2.569.176 1.425.079 2.932.124 4.448.144.219.884.635 1.491 1.118 1.491s.898-.605 1.118-1.49a98.628 98.628 0 0 0 4.479-.141c.891-.032 1.752-.11 2.567-.177l1.123-.096-4.771 10.956h-.666s.382 4.368 6.17 4.368c5.789 0 6.171-4.368 6.171-4.368h-.454zM5.679 12.519v9.046H1.74l3.939-9.046zm.983 9.046v-9.137l4.146 9.137H6.662zm19.658-9.137 4.146 9.137H26.32v-9.137zm-.982.091v9.046h-3.939l3.939-9.046z"></path>
  </symbol><symbol  viewBox='0 0 32 32' id='pisces'>
    <path d="M28.312 16.358s1.059-.429 3.688-.086c-.2-1.572-5.543-1.377-6.061-1.658-.518-.281-8.231-4.659-10.375-2.572s5.629 6.917 6.172 7.316c.545.399-1.284 3.346 1.945 4.632-.201-1.972-.201-2.315.144-2.658 0 0 4.286 4.944 1.515 5.774-2.373.6-6.201.17-6.201.17s-3.459-4.916-5.119-4.229c.915 1.688 2.058 4.584 2.058 4.584s-1.601.764-3.773 2.647c1.572 1 5.574-1.715 7.604-1.114 6.088 2.173 10.489-2.144 11.005-6.574.514-4.431-2.602-6.232-2.602-6.232z"></path><path d="M15.729 20.114c2.402-1.783-4.662-7.604-5.147-8.073-.485-.468 1.719-3.144-1.311-4.848-.064 1.982-.11 2.322-.496 2.617 0 0-3.593-5.472-.734-5.925 2.431-.28 6.17.654 6.17.654s2.775 5.333 4.51 4.873c-.683-1.793-1.431-4.815-1.431-4.815s1.688-.543 4.091-2.124c-1.425-1.201-5.752.959-7.684.094C7.952-.396 3.015 3.298 1.917 7.62c-1.099 4.323 1.75 6.521 1.75 6.521s-1.106.286-3.667-.404c-.01 1.585 5.311 2.101 5.786 2.448.475.347 7.54 5.712 9.943 3.929z"></path>
  </symbol><symbol  viewBox='0 0 29.91 29.91' id='sagittarius'>
    <path d="M1.556 25.055c0 .406-.406 4.209.656 4.209s.483-2.217 1.125-1.971c.642.248 6.656 2.695 7.864 2.615s1.224-1.693 1.219-2.037c.854.672 2.136.393 2.167.047.031-.922-1.656-1.453-1.698-2.219-.043-.766 6.063-1.666 4.646-4.207-1.25-2.459-5.241-3.096-5.584-4-.344-.906-.479-3.789-.479-3.789s1.288-.425 1.586-1.106c.298-.681-.596-1.264-.596-1.264l.817-.042 6.585 8.535.025-.73c.346-3.203 3.812-3.428 3.889-5.652.086-2.383-1.104-2.042-1.104-3.475v-.015h.006c0-.014 0-.028-.003-.042h3.089v.945l2.666-1.149-2.666-.865v.66h-3.061c.182-1.036 1.151-.961 1.073-3.122C23.695 4 19.724 3.915 19.867 0c-.021.029-.037.057-.059.085L19.822 0 12.66 8.949l-1.384-.145-1.502-1.03c.013-.016-.062-.543.145-.622.942.029 1.188-.019.954-.671.03-.027.198-.137.234-.215.036-.078-.048-.097-.048-.097s.062.003.106-.068c.045-.071-.078-.351-.078-.351s.313-.069.381-.186c.068-.117-.55-.836-.527-.967.023-.13.127-.191.156-.224.029-.033.099-.386-.283-.947a2.49 2.49 0 0 0-.476-.538c.247-.216.73-.683.699-1.003-.042-.428-2.433-1.378-4.293.615-1.86 1.994.452 4.031.452 4.031l.142-.118c.216.293.425.493.354.596 0 0-2.047.832-2.261 1.774-.215.942-.521 3.137-.521 3.605 0 .468-.858.752-.646 1.646.212.894 2.767 2.767 2.881 2.903.114.138-.951.929-.62 2.513.438 2.094 2.208 2.368 2.719 3.219.511.853.9 3.767.563 4.199 0 0-5.854-.935-6.479-1.918-.612-.703-1.772-.302-1.772.105zM12.431 21.2c.938.155 2.594 1.141 2.594 1.141s-2.002.529-2.219.828c-.159-.472-.328-1.719-.375-1.969zm6.7-19.368c-.067 2.136 3.146 2.979 3.146 4.551 0 1.316-.387 1.704-.642 2.371-.536.131-1.168.432-1.556.569-.451.159-3.294.236-5.615.106 0 0-.285-.082-.514-.207s-.68-.208-.68-.208l5.861-7.182zm.001 16.243-5.241-6.814c1.906-.1 5.131-.277 5.861-.365.47-.057 1.129-.277 1.693-.575.156 1.271.83 1.392.83 3.125 0 1.591-3.295 2.433-3.143 4.629z"></path>
  </symbol><symbol  viewBox='0 0 32 32' id='scorpion'>
    <path d="M7.834 17.638c.201-.047.404-.081.613-.103a7.836 7.836 0 0 1 1.256-.039l.535.017.045-.547c.011-.132.057-.332.129-.519.07-.19.161-.384.266-.569a4.91 4.91 0 0 1 .77-1.029c.581-.625 1.339-1.053 2.139-1.055h.342l.098-.281c.13-.373.412-.697.797-.938.382-.244.84-.418 1.316-.537.958-.247 1.983-.324 3.012-.34a9.214 9.214 0 0 0-3.114-.226c-.53.064-1.068.185-1.587.434-.422.208-.82.544-1.098.979a3.434 3.434 0 0 0-1.345.302 4.703 4.703 0 0 0-1.317.907c-.375.37-.694.785-.96 1.238a5.267 5.267 0 0 0-.352.719c-.042.11-.079.224-.113.34-.799.019-1.607.133-2.374.411-.915.351-1.761.904-2.394 1.639-.651.716-1.096 1.572-1.402 2.447-.291.884-.463 1.799-.445 2.709.221-.879.532-1.721.941-2.496.402-.778.908-1.489 1.523-2.062a5.572 5.572 0 0 1 2.119-1.246c.203-.052.395-.119.6-.155z"></path><path d="M4.457 17.181a6.067 6.067 0 0 1 1.916-.863 7.209 7.209 0 0 1 2.107-.196l.508.028.07-.561c.012-.092.053-.258.116-.414.065-.16.15-.321.244-.48.191-.317.427-.618.692-.876.26-.265.55-.494.861-.656.079-.037.156-.086.238-.109.081-.023.16-.067.243-.081.165-.044.33-.062.499-.074l.363-.033.075-.249c.163-.548.652-.958 1.295-1.169.639-.224 1.365-.281 2.097-.28a4.693 4.693 0 0 0-2.225-.28 2.98 2.98 0 0 0-1.154.402 2.339 2.339 0 0 0-.694.703 2.423 2.423 0 0 0-.466.047c-.125.016-.238.063-.357.094-.121.031-.229.085-.341.132a4.499 4.499 0 0 0-1.177.785 5.56 5.56 0 0 0-.881 1.071 4.807 4.807 0 0 0-.334.629c-.033.088-.068.174-.098.265a7.673 7.673 0 0 0-.756.049 6.432 6.432 0 0 0-1.214.25c-.788.255-1.538.649-2.157 1.19a6.52 6.52 0 0 0-1.493 1.892c-.361.707-.628 1.458-.714 2.229.636-1.405 1.567-2.629 2.737-3.445z"></path><path d="M1.625 16.966c-.29.697-.469 1.435-.46 2.17.459-1.378 1.251-2.602 2.334-3.366a5.114 5.114 0 0 1 1.789-.792 6.8 6.8 0 0 1 .98-.153c.332-.029.67-.025 1.008-.013l.502.02.077-.552c.007-.045.054-.244.121-.39.063-.155.149-.311.239-.461.185-.298.416-.566.682-.785.133-.108.266-.221.417-.301.144-.095.304-.155.462-.223.164-.051.328-.104.503-.125.171-.042.352-.03.528-.053l.365-.047.066-.217c.119-.392.624-.699 1.201-.852.577-.167 1.211-.229 1.854-.269a5.18 5.18 0 0 0-1.945-.3c-.339.021-.69.078-1.041.228a1.88 1.88 0 0 0-.712.541 2.075 2.075 0 0 0-.438.016 3.912 3.912 0 0 0-.688.129 3.51 3.51 0 0 0-.652.265 2.057 2.057 0 0 0-.307.174c-.098.065-.202.123-.289.202a4.41 4.41 0 0 0-.468.438C6.319 11.782.486 9.63 3.231 6.328c3.115-3.751 6.716-3.509 6.716-3.509S12.364 4.724 13.2 4.19c-1.719-1.396-.465-1.559-.465-1.559s1.441-.093 2.813 1.418c.209-1.372-2.811-2.923-3.369-2.998-.559-.075-1.302-.372-2.348.487-1.836-.533-6.646.86-9.063 4.16-2.526 4.611 1.844 7.64 3.468 8.565a4.965 4.965 0 0 0-1.277.83 5.433 5.433 0 0 0-1.334 1.873zm27.583-5.082c-1.828-1.006-2.896-.371-3.98.142-.312.091-3.349-.56-5.223-.235-1.812.313-5.645 1.983-5.896 2.093l-.011.006a.064.064 0 0 0-.014.006h.001c-.561.244-3.313 1.906-3.251 3.563-.148.128-.343.283-.518.425-1.372 1.103-3.67 2.944-3.226 5.17.565 2.832 3.848 4.254 3.987 4.312 0 0-.062 2.621 4.116 3.536 4.524.991 7.313-3.066 7.313-3.066s-5.795 2.633-6.631.773c-.435-.868 3.037-1.581 2.85-2.2-1.521-.521-3.904.094-3.842.527-.372-1.24-3.191-.961-3.191-.961s-2.736-1.179-3.145-3.214c-.268-1.34 1.59-2.829 2.699-3.719.554-.444.878-.714 1.049-.998.709.166 1.393.27 1.516.294l.004-.016c.151.438.549.781 1.35.904 1.789.162 2.114-.849 2.276-.675 1.568 2.127 4.812.373 4.812.373s-3.938-.432-3.403-2.127c.532-1.696 2.894-1.092 3.403-.709.371-1.545-3.567-1.532-3.637-1.08-.924-1.062-1.801-1.133-2.577-.72a11.683 11.683 0 0 0-.423-.121c.62-.263 2.638-1.079 4.523-1.401 2.262-.389 5.438.604 5.424 1.283-.016.68 1.969 2.248 3.422 2.142-1.146-1.209-1.314-2.078-.711-2.42.604-.341 2.772.822 3.688 2.42.266-1.191-.926-3.298-2.754-4.307z"></path>
  </symbol><symbol  viewBox='0 0 31.994 31.994' id='taurus'>
    <path d="M12.48 11.539c-.609-.554-3.646-3.475-6.007-3.99-.727-1.759-1.585-1.802-1.585-1.802S6.261 2.487.856 2.658c3.369 1.634 2.697 2.041 2.23 3.175-1.924.507-1.058 3.039-1.46 3.518-.4.479-1.886.987-1.586 1.887.301.9 3.432 1.244 3.947 1.459 1.973.771.771 3.99 1.415 5.189.644 1.201.901 3.99.901 3.99s-.688 2.147-.761 2.794c-.131.854.008 1.441-.1 2.042-.417.499-.766 1.268-.766 1.268l1.969.031s.188-.882 0-1.285c.043-.474 1.051-4.312 1.854-4.228.397-.129 1.02 4.312.462 4.312-.67.215-.729 1.327-.729 1.327l1.771.027s-.057-.885.297-.953c.258-.516.136-2.131.119-2.333l-.215-2.617s2.231-1.587 2.917-1.372c2.961.729 8.173-.985 8.667-1.328-.289.1 1.071 2.917 1.028 3.389s-1.319 2.635-1.553 3.183c-.715.396-.25 1.193-.25 1.193l1.598.044s.02-.899.291-.903.519-1.762.857-2.314c.34-.556 1.631-2.503 1.029-2.731-.603-.228 3.261 4.104 3.561 4.619.172.293.064 1.33-.061 2.164-.438.262-.196 1.139-.196 1.139h1.244s.077-.794.325-.893l.188-.522s-.104-3.712-2.146-5.878c.856-2.702-.474-7.335-.474-7.335s1.674.814 1.459 1.501c-.215 1.89 1.287 1.401 1.158 3.306-.301 1.544 1.416 2.102 2.146 2.571 0-.686-.301-1.973-1.315-2.443.157-2.188-1.13-2.745-1.087-3.477.13-3.604-2.002-2.814-3.174-3.132-1.066-.729-10.248-.215-10.248-.215s-2.647-.775-3.688-1.288"></path>
  </symbol><symbol  viewBox='0 0 28.857 28.857' id='virgo'>
    <path d="M23.653 24.451c-1.55.125-2.136.417-3.886.292-4.168-.083-.822-4.073-1.418-6.917-.594-2.845-.101-5.168-.276-8.081-.062-1.03-.353-1.506-.519-1.702a1.33 1.33 0 0 0-.228-.471c.399.41.522-.137.522-.137s-.121.505.025.589.657.095.547.569c.069.024.165.067.157-.184-.004-.125-.087-.313-.166-.487.843-.08.534-.763.534-.763s.931.127.208.668c1.046-.494-.196-.882-.196-.882s.321-.099.51.11c.029-.282-.401-.251-.57-.355-.168-.104-.317-.803-.317-.803s.573.323.397.674c.248-.15.259-.369.231-.76-.022-.392-.401-.317-.416-.473-.01-.109.095-.125.156-.208 0 .02.002.038.009.056.064.154.385.42.288.625.293-.202-.164-.546-.171-.687-.009-.14.312-.288.316-.515.009-.228-.627-.353-.644-.508-.016-.156.281-.216.288-.374.002-.067-.09-.256-.195-.451.084.07.17.138.152.207.17-.081-.105-.264-.092-.343.014-.08.229-.137.135-.368-.094-.232-.74-.594-.74-.594s.197-.058.416-.037.438.164.264.403c.244.075.203-.451.062-.532a.961.961 0 0 0-.681-.085c.271-1.198-1.146-1.28-1.146-1.28s.076-.267-.037-.361c-.115-.095-.889-.192-1.269-.275-.381-.083-1.389.314-1.746.466-.359.149-.74.818-.993.813-.248-.003-.552.085-.636.584.057.178.12.326.177.44-.04.104-.067.213-.085.321-.151.029-.334.021-.407-.155-.044.275.205.306.39.292-.039.411.048.8.116.976l.009.04a.253.253 0 0 1-.276-.114c-.038.185.176.213.293.214a.568.568 0 0 1-.087.382c-.175.263-.371.383-.435.56-.085.247.387.29.387.29l.002.093s-.151.147-.12.263c.043.152.348.098.348.098s-.292.108-.28.25c.015.143.137.205.137.205s-.283.556.134.679c.416.123 1.262-.386 1.372.208.068.265.21.771.393 1.153.337 1.476-1.942 2.569-2.161 3.726-.125.845.219 1.156.724 1.23-1.096 2.597-4.112.399-4.442.27-.329-.13-1.892-1.044-1.892-1.044 0-.35-.183-.945-.471-1.327V9.026c0-.022.003-.041.003-.063.256.555.562.951.692.894.134-.061.031-.574-.227-1.149a4.41 4.41 0 0 0-.235-.453c.127.11.278.227.45.338.525.346 1.018.527 1.098.405.081-.122-.281-.501-.807-.847a4.976 4.976 0 0 0-.307-.184c.126.012.26.019.402.019.63 0 1.14-.119 1.14-.265s-.51-.266-1.14-.266c-.164 0-.319.008-.46.023.088-.048.179-.101.271-.16.531-.337.898-.711.82-.835-.078-.123-.571.051-1.103.39l-.097.065.061-.103c.314-.545.468-1.046.341-1.12-.126-.069-.485.312-.799.859-.038.064-.071.128-.105.191.004-.071.005-.145.005-.22 0-.629-.118-1.14-.265-1.14-.143 0-.259.489-.264 1.099-.255-.553-.561-.953-.69-.894-.134.06-.033.575.226 1.147.024.054.05.104.074.154-.033-.019-.063-.041-.096-.063-.528-.346-1.018-.527-1.098-.405-.081.123.28.501.807.847.1.065.196.123.292.175a5.548 5.548 0 0 0-.293-.008c-.63 0-1.14.118-1.14.265 0 .146.51.265 1.14.265.063 0 .123-.002.184-.004a3.9 3.9 0 0 0-.286.164c-.531.338-.897.713-.819.836.078.124.572-.051 1.104-.388.034-.021.066-.045.099-.067a5.631 5.631 0 0 0-.063.102c-.314.545-.465 1.046-.339 1.12.127.073.484-.31.799-.854.036-.066.072-.13.104-.193a5.205 5.205 0 0 0-.005.218c0 .359.041.666.102.875v.804c-.043-.013-.085-.03-.13-.03-.446 0-.303.193-.334.662-.031.469-.313 1.812.688 2.281 1.864.764 4.088 3.52 6.866 2.471.501-.363 1.103 2.904-2.022 2.717-2.313-.125-3.417 1.229-2.75 3.062.501 1.457 3.257 3.788 3.167 5.292.04.634-2.302-.065-2.354 1.062-.045.997 3.355.712 4.083.667s.229-2.781.292-2.812c1.281.655 1.783 1.921 4 2.062 2.959 0 4.875-1.875 5.5-1.625s.291 1.344.541 1.917c.25.572 1.043.396 1.304.125.259-.269.421-4.125-1.128-4zM19.164 4.648c0 .094-.104.22-.167.339.003-.234-.316-.517-.316-.517s.483.03.483.178zm-.332-1.824c.062.104-.079.086-.125.213-.098-.167-.18-.299-.18-.299s.24-.027.305.086zm-.305 4.349s.691.507-.121.731c-.075-.165-.145-.312-.13-.369.03-.118.251-.362.251-.362zm-12.756.549c0-.164.154-.298.345-.298s.345.134.345.298c0 .163-.155.297-.345.297s-.345-.134-.345-.297z"></path>
  </symbol></svg>