<svg xmlns="http://www.w3.org/2000/svg" xmlns:xlink="http://www.w3.org/1999/xlink" style="width: 0; height: 0; visibility: hidden; position: absolute;" aria-hidden="true"><symbol  viewBox='0 0 200 200' id='create'>
    <g fill="var(--fill-color)"><path d="M120.8 172a8 8 0 0 1-3.1-5.2l-1-6.7H83.3l-1 6.7s-.3 3-3 5.1c-2.9 2-5 3.8-2.9 4.1 2.1.3 22.1 0 23.6 0s21.4.3 23.6 0c2.2-.3 0-2-2.8-4zm-58.3-53.4c8.9-.1 10-2.3 12.9-11.2 5.3-14 29.4 3.7 14.5 9.9-15 6.2-36.3 1.3-27.4 1.3z"></path><path d="M153.7 25.6c-4.3-3.5-11.4-1.7-16 3.9L92.2 94.3c-4.5 5.6-4.5 4.5-.2 8s3.3 3.8 7.8-1.8L153.4 42c4.5-5.6 4.6-13 .3-16.5zM142 33.4s-.7-.8-2.9-2.6c3.3-5.4 9.9-4.4 9.9-4.4-6.2 3.7-7 7-7 7z"></path><path d="M174 47.5h-20.1l-8.9 9.7h25.8v77.2H29.2V57.2h82.4l6.8-9.7H26a6.4 6.4 0 0 0-6.4 6.5v93.3c0 3.5 2.9 6.4 6.4 6.4h148c3.5 0 6.4-2.9 6.4-6.4V54c0-3.6-2.9-6.5-6.4-6.5z"></path></g>
  </symbol><symbol  viewBox='0 0 32 32' id='mail'>
    <path class="mail-icon" d="M26.7 0H5.3A5.3 5.3 0 0 0 0 5.3v21.4C0 29.6 2.4 32 5.3 32h21.4c2.9 0 5.3-2.4 5.3-5.3V5.3C32 2.4 29.6 0 26.7 0zm0 4c.2 0 .5 0 .7.2L16 13.6 4.6 4.2l.7-.2h21.4zM5.3 28h-.1l7-9.8-1-1L4 24.7V5.5L16 20 28 5.5v19l-7.3-7.2-1 1 7.1 9.7H5.3z" fill="var(--fill-color)"></path>
  </symbol><symbol  viewBox='0 0 200 200' id='topics'>
    <g fill="var(--fill-color)"><path d="M100 18.6a80.5 80.5 0 0 0 0 160.8 80.5 80.5 0 0 0 0-160.8zm4.8 151v-12.7h-9.6v12.7a70.8 70.8 0 0 1-65.8-65.8h12.7v-9.6H29.4a70.8 70.8 0 0 1 65.8-65.8v12.7h9.6V28.4a70.8 70.8 0 0 1 65.8 65.8h-12.7v9.6h12.7a70.8 70.8 0 0 1-65.8 65.8z"></path><path d="M66.3 114.3c5-3.3 10.5-5.3 15.8-7l2.3-.9h.2c1.1-.5 2.2-.9 3-1.4.1 0 .2-.2.2-.5a47.5 47.5 0 0 1-7.4-24.8c0-7.2 2.3-12.6 6.6-15.8-1.9-1-4-1.3-6.5-1.3C74.1 62.6 69 65 69 74.3a32 32 0 0 0 5.7 17.9l-.1 1c-.2 1-.5 2-1.4 2.5-1 .6-2 1-3.1 1.3-4.5 1.5-9 2.8-13 5.4-2 1.4-3.4 4-4.2 6.4-.8 2.3-1 4.7-1 7.9h12c.8-1.6 1.6-1.8 2.5-2.4zm76.7-11.8c-4-2.6-8.5-4-13-5.4-1-.4-2.1-.8-3-1.4-1-.5-1.3-1.5-1.5-2.5l-.2-1.5a32.3 32.3 0 0 0 5.4-17.4c0-9.2-5.2-11.7-11.6-11.7-2.4 0-4.7.3-6.5 1.3 4.2 3.3 6.4 8.6 6.4 15.8 0 8.3-2.7 17.8-7 24.3v.2l.3.9c1 .5 2 .9 3.3 1.3l1.9.6c5.4 1.9 11.1 4 16.2 7.5.8.5 1.6.6 2.4 2.2h12.1c0-3.2-.2-5.6-1-8-.8-2.2-2.2-4.8-4.2-6.2z"></path><path d="M131.6 117.4c-5.3-3.5-11.4-5.3-17.3-7.3a23 23 0 0 1-4.1-1.8c-1.2-.7-1.6-2.1-2-3.4l-.1-2a43 43 0 0 0 7-23.2c0-12.3-6.8-15.7-15.4-15.7s-15.4 3.4-15.4 15.7c0 8 3 18 7.6 23.8l-.2 1.4c-.3 1.2-.7 2.6-1.9 3.3-1.3.8-2.7 1.3-4.1 1.8-6 2-12 3.7-17.3 7.2a16.2 16.2 0 0 0-5.6 8.3c-1 3.2-1.5 7.3-1.4 10.5h77.2a38 38 0 0 0-1.4-10.5 16 16 0 0 0-5.6-8.1z"></path></g>
  </symbol><symbol  viewBox='0 0 200 200' id='use'>
    <g fill="var(--fill-color)"><path d="M86.8 113.6v9.8l-35-15.1v-8.4l35-15.1v9.9L62.4 104l24.4 9.6zm21.5-29.1l-9.7 40a50 50 0 0 1-.8 3.2 4 4 0 0 1-1.1 1.8c-.5.4-1.3.6-2.2.6-2.4 0-3.5-1-3.5-3 0-.6.2-1.9.7-4l9.6-40c.5-2.2 1-3.6 1.5-4.4.5-.8 1.4-1.2 2.7-1.2 1.2 0 2 .3 2.7.8a3 3 0 0 1 .9 2.3c0 .7-.3 2-.8 4zm39.9 23.8l-35 15.2v-9.8l24.4-9.6-24.4-9.4v-9.8l35 15v8.4z"></path><path d="M170.6 28.4H29.4a9.6 9.6 0 0 0-9.7 9.6v122c0 5.3 4.3 9.6 9.7 9.6h141.2c5.4 0 9.7-4.3 9.7-9.6V38c0-5.3-4.3-9.6-9.7-9.6zm-24 6.4a6.4 6.4 0 1 1 0 12.8 6.4 6.4 0 0 1 0-12.8zm-17.7 0a6.4 6.4 0 1 1 0 12.8 6.4 6.4 0 0 1 0-12.8zM170.6 160H29.4V54h141.2v106zm-6.4-112.4a6.4 6.4 0 1 1 0-12.8 6.4 6.4 0 0 1 0 12.8z"></path></g>
  </symbol></svg>